<svg xmlns="http://www.w3.org/2000/svg" width="1280" height="500" viewBox="0 0 1280 500">
  <style>* { font-family: "Ubuntu", "Helvetica", "Arial", sans-serif; }</style>
  <rect x="0" y="0" width="1280" height="500" fill="#00000f"></rect>
  
  <!-- Gráfico de Radar (Estatísticas) -->
  <g transform="translate(980, 250)">
    <line x1="0" y1="-31.2" x2="29.67" y2="-9.64" style="stroke: #aaaaaa; stroke-dasharray: 4 4; stroke-width: 1px;"></line>
    <line x1="29.67" y1="-9.64" x2="18.34" y2="25.24" style="stroke: #aaaaaa; stroke-dasharray: 4 4; stroke-width: 1px;"></line>
    <line x1="18.34" y1="25.24" x2="-18.34" y2="25.24" style="stroke: #aaaaaa; stroke-dasharray: 4 4; stroke-width: 1px;"></line>
    <line x1="-18.34" y1="25.24" x2="-29.67" y2="-9.64" style="stroke: #aaaaaa; stroke-dasharray: 4 4; stroke-width: 1px;"></line>
    <line x1="-29.67" y1="-9.64" x2="0" y2="-31.2" style="stroke: #aaaaaa; stroke-dasharray: 4 4; stroke-width: 1px;"></line>
    <line x1="0" y1="-62.4" x2="59.35" y2="-19.28" style="stroke: #aaaaaa; stroke-dasharray: 4 4; stroke-width: 1px;"></line>
    <line x1="59.35" y1="-19.28" x2="36.68" y2="50.48" style="stroke: #aaaaaa; stroke-dasharray: 4 4; stroke-width: 1px;"></line>
    <line x1="36.68" y1="50.48" x2="-36.68" y2="50.48" style="stroke: #aaaaaa; stroke-dasharray: 4 4; stroke-width: 1px;"></line>
    <line x1="-36.68" y1="50.48" x2="-59.35" y2="-19.28" style="stroke: #aaaaaa; stroke-dasharray: 4 4; stroke-width: 1px;"></line>
    <line x1="-59.35" y1="-19.28" x2="0" y2="-62.4" style="stroke: #aaaaaa; stroke-dasharray: 4 4; stroke-width: 1px;"></line>
    <line x1="0" y1="-93.6" x2="89.02" y2="-28.92" style="stroke: #aaaaaa; stroke-dasharray: 4 4; stroke-width: 1px;"></line>
    <line x1="89.02" y1="-28.92" x2="55.02" y2="75.72" style="stroke: #aaaaaa; stroke-dasharray: 4 4; stroke-width: 1px;"></line>
    <line x1="55.02" y1="75.72" x2="-55.02" y2="75.72" style="stroke: #aaaaaa; stroke-dasharray: 4 4; stroke-width: 1px;"></line>
    <line x1="-55.02" y1="75.72" x2="-89.02" y2="-28.92" style="stroke: #aaaaaa; stroke-dasharray: 4 4; stroke-width: 1px;"></line>
    <line x1="-89.02" y1="-28.92" x2="0" y2="-93.6" style="stroke: #aaaaaa; stroke-dasharray: 4 4; stroke-width: 1px;"></line>
    <line x1="0" y1="-124.8" x2="118.69" y2="-38.57" style="stroke: #aaaaaa; stroke-dasharray: 4 4; stroke-width: 1px;"></line>
    <line x1="118.69" y1="-38.57" x2="73.36" y2="100.97" style="stroke: #aaaaaa; stroke-dasharray: 4 4; stroke-width: 1px;"></line>
    <line x1="73.36" y1="100.97" x2="-73.36" y2="100.97" style="stroke: #aaaaaa; stroke-dasharray: 4 4; stroke-width: 1px;"></line>
    <line x1="-73.36" y1="100.97" x2="-118.69" y2="-38.57" style="stroke: #aaaaaa; stroke-dasharray: 4 4; stroke-width: 1px;"></line>
    <line x1="-118.69" y1="-38.57" x2="0" y2="-124.8" style="stroke: #aaaaaa; stroke-dasharray: 4 4; stroke-width: 1px;"></line>
    <line x1="0" y1="-156" x2="148.36" y2="-48.21" style="stroke: #aaaaaa; stroke-dasharray: 4 4; stroke-width: 1px;"></line>
    <line x1="148.36" y1="-48.21" x2="91.69" y2="126.21" style="stroke: #aaaaaa; stroke-dasharray: 4 4; stroke-width: 1px;"></line>
    <line x1="91.69" y1="126.21" x2="-91.69" y2="126.21" style="stroke: #aaaaaa; stroke-dasharray: 4 4; stroke-width: 1px;"></line>
    <line x1="-91.69" y1="126.21" x2="-148.36" y2="-48.21" style="stroke: #aaaaaa; stroke-dasharray: 4 4; stroke-width: 1px;"></line>
    <line x1="-148.36" y1="-48.21" x2="0" y2="-156" style="stroke: #aaaaaa; stroke-dasharray: 4 4; stroke-width: 1px;"></line>
    <text style="font-size: 13px;" text-anchor="start" dominant-baseline="auto" x="3.12" y="-31.2" fill="#aaaaaa">1</text>
    <text style="font-size: 13px;" text-anchor="start" dominant-baseline="auto" x="3.12" y="-62.4" fill="#aaaaaa">10</text>
    <text style="font-size: 13px;" text-anchor="start" dominant-baseline="auto" x="3.12" y="-93.6" fill="#aaaaaa">100</text>
    <text style="font-size: 13px;" text-anchor="start" dominant-baseline="auto" x="3.12" y="-124.8" fill="#aaaaaa">1K</text>
    <text style="font-size: 13px;" text-anchor="start" dominant-baseline="auto" x="3.12" y="-156" fill="#aaaaaa">10K</text>
    <g class="axis">
      <line x1="0" y1="-31.2" x2="0" y2="-156" style="stroke: #aaaaaa; stroke-dasharray: 4 4; stroke-width: 1px;"></line>
      <text style="font-size: 20.8px;" text-anchor="middle" dominant-baseline="middle" x="0" y="-182.52" fill="#eeeeff">Commit<title>154</title></text>
    </g>
    <g class="axis">
      <line x1="29.67" y1="-9.64" x2="148.36" y2="-48.21" style="stroke: #aaaaaa; stroke-dasharray: 4 4; stroke-width: 1px;"></line>
      <text style="font-size: 20.8px;" text-anchor="middle" dominant-baseline="middle" x="185.46" y="-56.4" fill="#eeeeff">Issue<title>0</title></text>
    </g>
    <g class="axis">
      <line x1="18.34" y1="25.24" x2="91.69" y2="126.21" style="stroke: #aaaaaa; stroke-dasharray: 4 4; stroke-width: 1px;"></line>
      <text style="font-size: 20.8px;" text-anchor="middle" dominant-baseline="middle" x="114.62" y="147.66" fill="#eeeeff">PullReq<title>2</title></text>
    </g>
    <g class="axis">
      <line x1="-18.34" y1="25.24" x2="-91.69" y2="126.21" style="stroke: #aaaaaa; stroke-dasharray: 4 4; stroke-width: 1px;"></line>
      <text style="font-size: 20.8px;" text-anchor="middle" dominant-baseline="middle" x="-114.62" y="147.66" fill="#eeeeff">Review<title>1</title></text>
    </g>
    <g class="axis">
      <line x1="-29.67" y1="-9.64" x2="-148.36" y2="-48.21" style="stroke: #aaaaaa; stroke-dasharray: 4 4; stroke-width: 1px;"></line>
      <text style="font-size: 20.8px;" text-anchor="middle" dominant-baseline="middle" x="-185.46" y="-56.4" fill="#eeeeff">Repo<title>15</title></text>
    </g>
    <polygon style="stroke-width: 4px; stroke: rgb(255,200,55); fill: rgb(255,200,55); fill-opacity: 0.5;" points="0,-99.45 23.74,-7.71 23.86,32.84 -18.34,25.24 -64.57,-20.98">
      <animate attributeName="points" values="0,-24.96 23.74,-7.71 14.67,20.19 -14.67,20.19 -23.74,-7.71;0,-99.45 23.74,-7.71 23.86,32.84 -18.34,25.24 -64.57,-20.98" dur="3s" repeatCount="1"></animate>
    </polygon>
  </g>
  
  <!-- Gráfico de Pizza -->
  <g transform="translate(120, 120)">
    <g transform="translate(273, 0)">
      <rect x="0" y="37.916666666666664" width="21.666666666666668" height="21.666666666666668" fill="#f1e05a" stroke="#00000f" stroke-width="1px">
        <animate attributeName="fill-opacity" values="0;0.2;0.4;0.6;0.8;1;1;1;1;1;1" dur="3s" repeatCount="1"></animate>
      </rect>
      <rect x="0" y="70.41666666666667" width="21.666666666666668" height="21.666666666666668" fill="#e34c26" stroke="#00000f" stroke-width="1px">
        <animate attributeName="fill-opacity" values="0;0;0.2;0.4;0.6;0.8;1;1;1;1;1" dur="3s" repeatCount="1"></animate>
      </rect>
      <rect x="0" y="102.91666666666667" width="21.666666666666668" height="21.666666666666668" fill="#3572A5" stroke="#00000f" stroke-width="1px">
        <animate attributeName="fill-opacity" values="0;0;0;0.2;0.4;0.6;0.8;1;1;1;1" dur="3s" repeatCount="1"></animate>
      </rect>
      <rect x="0" y="135.41666666666666" width="21.666666666666668" height="21.666666666666668" fill="#663399" stroke="#00000f" stroke-width="1px">
        <animate attributeName="fill-opacity" values="0;0;0;0;0.2;0.4;0.6;0.8;1;1;1" dur="3s" repeatCount="1"></animate>
      </rect>
      <rect x="0" y="167.91666666666666" width="21.666666666666668" height="21.666666666666668" fill="#DA5B0B" stroke="#00000f" stroke-width="1px">
        <animate attributeName="fill-opacity" values="0;0;0;0;0;0.2;0.4;0.6;0.8;1;1" dur="3s" repeatCount="1"></animate>
      </rect>
      <rect x="0" y="200.41666666666666" width="21.666666666666668" height="21.666666666666668" fill="#444444" stroke="#00000f" stroke-width="1px">
        <animate attributeName="fill-opacity" values="0;0;0;0;0;0;0.2;0.4;0.6;0.8;1" dur="3s" repeatCount="1"></animate>
      </rect>
      <text dominant-baseline="middle" x="26" y="48.75" fill="#eeeeff" font-size="21.666666666666668px">JavaScript
        <animate attributeName="fill-opacity" values="0;0.2;0.4;0.6;0.8;1;1;1;1;1;1" dur="3s" repeatCount="1"></animate>
      </text>
      <text dominant-baseline="middle" x="26" y="81.25" fill="#eeeeff" font-size="21.666666666666668px">HTML
        <animate attributeName="fill-opacity" values="0;0;0.2;0.4;0.6;0.8;1;1;1;1;1" dur="3s" repeatCount="1"></animate>
      </text>
      <text dominant-baseline="middle" x="26" y="113.75" fill="#eeeeff" font-size="21.666666666666668px">Python
        <animate attributeName="fill-opacity" values="0;0;0;0.2;0.4;0.6;0.8;1;1;1;1" dur="3s" repeatCount="1"></animate>
      </text>
      <text dominant-baseline="middle" x="26" y="146.25" fill="#eeeeff" font-size="21.666666666666668px">CSS
        <animate attributeName="fill-opacity" values="0;0;0;0;0.2;0.4;0.6;0.8;1;1;1" dur="3s" repeatCount="1"></animate>
      </text>
      <text dominant-baseline="middle" x="26" y="178.75" fill="#eeeeff" font-size="21.666666666666668px">Jupyter Notebook
        <animate attributeName="fill-opacity" values="0;0;0;0;0;0.2;0.4;0.6;0.8;1;1" dur="3s" repeatCount="1"></animate>
      </text>
      <text dominant-baseline="middle" x="26" y="211.25" fill="#eeeeff" font-size="21.666666666666668px">other
        <animate attributeName="fill-opacity" values="0;0;0;0;0;0;0.2;0.4;0.6;0.8;1" dur="3s" repeatCount="1"></animate>
      </text>
    </g>
    <g transform="translate(130, 130)">
      <path d="M7.164183775012016e-15,-117A117,117,0,0,1,116.78096116362391,-7.155914316155604L64.87831175756884,-3.97550795341978A65,65,0,0,0,3.980102097228898e-15,-65Z" style="fill: #f1e05a;" stroke="#00000f" stroke-width="2px">
        <title>JavaScript 37</title>
        <animate attributeName="fill-opacity" values="0;0.2;0.4;0.6;0.8;1;1;1;1;1;1" dur="3s" repeatCount="1"></animate>
      </path>
      <path d="M116.78096116362391,-7.155914316155604A117,117,0,0,1,91.4742834487595,72.94830681747182L50.819046360421936,40.526837120817675A65,65,0,0,0,64.87831175756884,-3.97550795341978Z" style="fill: #e34c26;" stroke="#00000f" stroke-width="2px">
        <title>HTML 18</title>
        <animate attributeName="fill-opacity" values="0;0;0.2;0.4;0.6;0.8;1;1;1;1;1" dur="3s" repeatCount="1"></animate>
      </path>
      <path d="M91.4742834487595,72.94830681747182A117,117,0,0,1,37.514231884670046,110.82275220415349L20.841239935927803,61.568195668974155A65,65,0,0,0,50.819046360421936,40.526837120817675Z" style="fill: #3572A5;" stroke="#00000f" stroke-width="2px">
        <title>Python 14</title>
        <animate attributeName="fill-opacity" values="0;0;0;0.2;0.4;0.6;0.8;1;1;1;1" dur="3s" repeatCount="1"></animate>
      </path>
      <path d="M37.514231884670046,110.82275220415349A117,117,0,0,1,-9.536586175006391,116.6106921518206L-5.298103430559106,64.78371786212256A65,65,0,0,0,20.841239935927803,61.568195668974155Z" style="fill: #663399;" stroke="#00000f" stroke-width="2px">
        <title>CSS 10</title>
        <animate attributeName="fill-opacity" values="0;0;0;0;0.2;0.4;0.6;0.8;1;1;1" dur="3s" repeatCount="1"></animate>
      </path>
      <path d="M-9.536586175006391,116.6106921518206A117,117,0,0,1,-32.962709150447246,112.2606779128962L-18.312616194692914,62.36704328494233A65,65,0,0,0,-5.298103430559106,64.78371786212256Z" style="fill: #DA5B0B;" stroke="#00000f" stroke-width="2px">
        <title>Jupyter Notebook 5</title>
        <animate attributeName="fill-opacity" values="0;0;0;0;0;0.2;0.4;0.6;0.8;1;1" dur="3s" repeatCount="1"></animate>
      </path>
      <path d="M-32.962709150447246,112.2606779128962A117,117,0,0,1,-2.1492551325036047e-14,-117L-1.1940306291686693e-14,-65A65,65,0,0,0,-18.312616194692914,62.36704328494233Z" style="fill: #444444;" stroke="#00000f" stroke-width="2px">
        <title>other 70</title>
        <animate attributeName="fill-opacity" values="0;0;0;0;0;0;0.2;0.4;0.6;0.8;1" dur="3s" repeatCount="1"></animate>
      </path>
    </g>
  </g>
  
  <!-- Rodapé (Estatísticas) -->
  <g>
    <text style="font-size: 32px; font-weight: bold;" x="464" y="468" text-anchor="end" fill="rgb(255,200,55)">298</text>
    <text style="font-size: 24px;" x="474" y="468" text-anchor="start" fill="#eeeeff">contributions</text>
    <g transform="translate(688 440) scale(2)">
      <path fill-rule="evenodd" d="M8 .25a.75.75 0 01.673.418l1.882 3.815 4.21.612a.75.75 0 01.416 1.279l-3.046 2.97.719 4.192a.75.75 0 01-1.088.791L8 12.347l-3.766 1.98a.75.75 0 01-1.088-.79l.72-4.194L.818 6.374a.75.75 0 01.416-1.28l4.21-.611L7.327.668A.75.75 0 018 .25zm0 2.445L6.615 5.5a.75.75 0 01-.564.41l-3.097.45 2.24 2.184a.75.75 0 01.216.664l-.528 3.084 2.769-1.456a.75.75 0 01.698 0l2.77 1.456-.53-3.084a.75.75 0 01.216-.664l2.24-2.183-3.096-.45a.75.75 0 01-.564-.41L8 2.694v.001z" fill="#eeeeff"></path>
    </g>
    <text style="font-size: 32px; font-weight: bold;" x="730" y="468" text-anchor="start" fill="#eeeeff">8<title>8</title></text>
    <g transform="translate(816 440) scale(2)">
      <path fill-rule="evenodd" d="M5 3.25a.75.75 0 11-1.5 0 .75.75 0 011.5 0zm0 2.122a2.25 2.25 0 10-1.5 0v.878A2.25 2.25 0 005.75 8.5h1.5v2.128a2.251 2.251 0 101.5 0V8.5h1.5a2.25 2.25 0 002.25-2.25v-.878a2.25 2.25 0 10-1.5 0v.878a.75.75 0 01-.75.75h-4.5A.75.75 0 015 6.25v-.878zm3.75 7.378a.75.75 0 11-1.5 0 .75.75 0 011.5 0zm3-8.75a.75.75 0 100-1.5.75.75 0 000 1.5z" fill="#eeeeff"></path>
    </g>
    <text style="font-size: 32px; font-weight: bold;" x="852" y="468" text-anchor="start" fill="#eeeeff">1<title>1</title></text>
    
    <!-- Data -->
    <text style="font-size: 16px;" x="1260" y="20" dominant-baseline="hanging" text-anchor="end" fill="#aaaaaa">2023-12-24 / 2024-12-24</text>
  </g>
</svg>
